<svg width="16" height="16" viewBox="0 0 16 16" fill="none" xmlns="http://www.w3.org/2000/svg">
<path fill-rule="evenodd" clip-rule="evenodd" d="M1.86885 15.9996C1.78287 15.9996 1.6977 15.9774 1.6182 15.932C1.443 15.8305 1.3335 15.6301 1.3335 15.412V1.44245C1.3335 0.646436 1.92319 0 2.64834 0H13.3528C14.0779 0 14.6668 0.646436 14.6668 1.44245V15.412C14.6668 15.6301 14.5565 15.8305 14.3813 15.932C14.2053 16.0335 13.9928 16.021 13.8297 15.8972L8.00016 11.5254L2.17058 15.8972C2.08055 15.9649 1.9751 15.9996 1.86885 15.9996ZM2.6483 1.17529C2.51365 1.17529 2.40415 1.2955 2.40415 1.44241V14.2989L7.69839 10.3277C7.88089 10.1906 8.12018 10.1906 8.30187 10.3277L13.5961 14.2989V1.44241C13.5961 1.2955 13.4866 1.17529 13.3528 1.17529H2.6483Z" fill="#FF5900"/>
</svg>
