<svg viewBox="0 0 24 24" focusable="false" class="th-icon "><path fill="currentColor" fill-rule="evenodd" d="M17.723 4.714c0-.01 0-.01-.004.003-.013.05-.075.294-.37.757-.335.522-.82 1.096-1.37 1.66-.265.27-.531.527-.783.759a20.228 20.228 0 0 1-.783-.76c-.55-.563-1.036-1.137-1.37-1.659-.296-.463-.358-.706-.37-.757-.004-.012-.004-.013-.004-.003 0-1.147 1-2.314 2.527-2.314 1.527 0 2.527 1.167 2.527 2.314ZM15.195 11s4.859-3.682 4.859-6.286c0-2.603-2.176-4.714-4.86-4.714-2.683 0-4.858 2.11-4.858 4.714 0 2.604 4.859 6.286 4.859 6.286Zm-6.86-2.766H6.722a.99.99 0 0 1-.729-.327 1.167 1.167 0 0 1-.301-.79c0-.296.108-.58.301-.79A.99.99 0 0 1 6.723 6h1.612a.99.99 0 0 1 .728.327c.193.21.302.494.302.79 0 .296-.109.58-.302.79a.99.99 0 0 1-.728.327Zm11.152 12.552a.96.96 0 0 0 .968.101c.127-.057.241-.14.337-.247.396-.437.707-.956.914-1.526a4.904 4.904 0 0 0-.087-3.565 4.563 4.563 0 0 0-.987-1.472.984.984 0 0 0-.741-.291.999.999 0 0 0-.715.361 1.175 1.175 0 0 0-.269.804c.012.296.132.575.334.775.213.21.384.466.505.75a2.485 2.485 0 0 1 .044 1.82 2.35 2.35 0 0 1-.468.778 1.153 1.153 0 0 0-.276.572c-.038.216-.016.44.062.642.078.203.21.376.379.498Zm-12.98-5.67H17.08a.99.99 0 0 0 .729-.326c.193-.21.301-.494.301-.79 0-.296-.108-.58-.301-.79a.99.99 0 0 0-.729-.327H6.507a.991.991 0 0 0-.728.327c-.193.21-.301.494-.301.79 0 .296.108.58.301.79.193.21.455.327.728.327Zm-3.032-1.178a.961.961 0 0 0 .975-.09c.168-.12.3-.29.38-.49.08-.199.104-.42.07-.634a1.154 1.154 0 0 0-.263-.572 2.365 2.365 0 0 1-.449-.79 2.505 2.505 0 0 1 .086-1.818c.126-.281.304-.532.521-.737.2-.196.32-.47.336-.762a1.178 1.178 0 0 0-.252-.799 1.004 1.004 0 0 0-.696-.38.978.978 0 0 0-.742.258 4.538 4.538 0 0 0-1.019 1.444 4.914 4.914 0 0 0-.168 3.56 4.64 4.64 0 0 0 .878 1.549c.097.111.213.2.343.261ZM7.42 24c1.61 0 2.916-1.343 2.916-3S9.03 18 7.42 18c-1.61 0-2.915 1.343-2.915 3s1.305 3 2.915 3Zm10.389-2.327a.99.99 0 0 1-.729.327h-3.77a.991.991 0 0 1-.73-.327 1.167 1.167 0 0 1-.3-.79c0-.296.108-.58.3-.79a.991.991 0 0 1 .73-.327h3.77a.99.99 0 0 1 .729.327c.193.21.301.494.301.79 0 .296-.108.58-.301.79Z" clip-rule="evenodd"></path></svg>