<svg viewBox="0 0 24 24" focusable="false" class="th-icon "><path fill="currentColor" fill-rule="evenodd" d="M20.384 21a.8.8 0 0 1-.462-.15.917.917 0 0 1-.315-.4 1.019 1.019 0 0 1-.067-.523.98.98 0 0 1 .201-.48c1.645-2.06 2.552-4.704 2.552-7.441 0-2.738-.907-5.383-2.552-7.442a.96.96 0 0 1-.171-.317 1.021 1.021 0 0 1 .038-.722.934.934 0 0 1 .205-.293.838.838 0 0 1 .291-.183.784.784 0 0 1 .658.052c.1.057.19.134.264.229C22.943 5.73 24 8.814 24 12.006s-1.057 6.275-2.974 8.675c-.08.1-.18.18-.29.236a.79.79 0 0 1-.352.083Zm-17.12-.083a.79.79 0 0 0 .814-.067.918.918 0 0 0 .315-.4c.067-.164.09-.345.067-.523a.98.98 0 0 0-.202-.48c-1.644-2.06-2.55-4.704-2.55-7.441 0-2.738.906-5.382 2.55-7.442a.997.997 0 0 0 .201-.675.972.972 0 0 0-.289-.636.808.808 0 0 0-.612-.23.827.827 0 0 0-.584.307C1.057 5.73 0 8.814 0 12.006c0 3.191 1.057 6.274 2.974 8.675.08.1.179.18.29.236Zm3.683-3.114a.79.79 0 0 1-.352-.084.866.866 0 0 1-.29-.235c-1.21-1.515-1.876-3.46-1.876-5.474 0-2.014.666-3.96 1.876-5.475a.827.827 0 0 1 .584-.307.808.808 0 0 1 .613.23c.168.162.272.39.288.636a.997.997 0 0 1-.2.676c-.937 1.173-1.454 2.68-1.454 4.24s.517 3.066 1.453 4.24a.98.98 0 0 1 .202.48c.024.177 0 .36-.067.523a.917.917 0 0 1-.315.4.8.8 0 0 1-.462.15Zm10.105 0a.8.8 0 0 1-.462-.15.917.917 0 0 1-.314-.4 1.019 1.019 0 0 1-.067-.523.98.98 0 0 1 .201-.48c.938-1.173 1.454-2.68 1.454-4.24s-.516-3.067-1.454-4.24a.997.997 0 0 1-.2-.676.972.972 0 0 1 .288-.636.808.808 0 0 1 .612-.23.827.827 0 0 1 .584.307c1.21 1.515 1.878 3.46 1.878 5.475 0 2.014-.668 3.96-1.878 5.474-.08.1-.179.18-.29.235a.79.79 0 0 1-.352.084Zm-5.81-8.682 3.344 2.1c.126.08.23.193.303.33a.96.96 0 0 1 0 .9.867.867 0 0 1-.303.329l-3.345 2.1a.796.796 0 0 1-.413.12.786.786 0 0 1-.414-.12.867.867 0 0 1-.303-.33.96.96 0 0 1-.111-.45V9.9a.96.96 0 0 1 .11-.45.867.867 0 0 1 .304-.33.777.777 0 0 1 .827 0Z" clip-rule="evenodd"></path></svg>