<svg viewBox="0 0 24 24" focusable="false" class="th-icon "><path fill="currentColor" d="M24 11.875C24 5.742 19.168.543 13 .039 9.729-.23 6.428.9 3.952 3.139 1.315 5.522-.122 8.871.008 12.325c.04 1.044.223 2.065.528 3.049-.007.07-.022.137-.022.209v4.308c0 1.16.999 2.109 2.22 2.109h3.55a.442.442 0 0 0 .451-.429v-7.669a.442.442 0 0 0-.451-.428h-3.55c-.128 0-.253.016-.375.036a9.795 9.795 0 0 1-.133-1.26C2.118 9.398 3.305 6.634 5.48 4.667c2.017-1.821 4.69-2.743 7.33-2.527 5.03.412 8.97 4.688 8.97 9.735 0 .553-.047 1.1-.138 1.635a2.28 2.28 0 0 0-.376-.036h-3.55a.442.442 0 0 0-.451.428v7.67c0 .235.203.428.451.428h3.55c1.221 0 2.22-.95 2.22-2.11v-4.307c0-.07-.014-.134-.022-.201.351-1.124.536-2.301.536-3.507Z"></path></svg>