<svg viewBox="0 0 24 24" focusable="false" class="th-icon "><path fill="currentColor" fill-rule="evenodd" d="M23.691 3.25C20.406-.318 15.375.732 12 3.818 8.621.727 3.59-.32.307 3.25A1.2 1.2 0 0 0 0 4.056v16.542c0 .463.256.878.647 1.054.39.175.844.08 1.144-.247 2.603-2.824 6.853-1.574 9.465 1.262.098.105.212.185.333.242l.007.004h.002a.98.98 0 0 0 .8 0h.002l.006-.004c.122-.057.237-.137.334-.242 2.614-2.836 6.868-4.086 9.467-1.262a.993.993 0 0 0 1.144.247c.39-.176.649-.591.649-1.054V4.056c0-.302-.111-.591-.309-.806ZM2.1 18.37V4.557C4.613 2.232 8.43 3.3 10.95 5.804v13.661c-1.682-1.206-3.637-1.93-5.543-1.93-1.145 0-2.27.26-3.307.835Zm19.8 0c-2.763-1.532-6.16-.838-8.851 1.094V5.804c2.523-2.505 6.342-3.57 8.851-1.248v13.813Z" clip-rule="evenodd"></path></svg>